<svg width="68" height="59" viewBox="0 0 68 59" fill="none" xmlns="http://www.w3.org/2000/svg">
<g clip-path="url(#clip0_1048_52467)">
<path fill-rule="evenodd" clip-rule="evenodd" d="M20.0723 2.50919C20.0723 1.1234 21.1957 0 22.5815 0H46.6697C48.0555 0 49.1789 1.1234 49.1789 2.50919V24.3038H46.1679V3.01103H23.0833V55.2023H20.0723V2.50919Z" fill="#656565"/>
<path fill-rule="evenodd" clip-rule="evenodd" d="M0 16.56C0 15.1742 1.1234 14.0508 2.50919 14.0508H20.5754V17.0618H3.01103V54.6997H0V16.56Z" fill="#656565"/>
<path d="M28.6035 9.03493C28.6035 8.48061 29.0529 8.03125 29.6072 8.03125H31.6145C32.1689 8.03125 32.6182 8.48061 32.6182 9.03493V11.0423C32.6182 11.5966 32.1689 12.046 31.6145 12.046H29.6072C29.0529 12.046 28.6035 11.5966 28.6035 11.0423V9.03493Z" fill="#656565"/>
<path d="M28.6035 32.9021C28.6035 32.3478 29.0529 31.8984 29.6072 31.8984H31.6145C32.1689 31.8984 32.6182 32.3478 32.6182 32.9021V34.9095C32.6182 35.4638 32.1689 35.9131 31.6145 35.9131H29.6072C29.0529 35.9131 28.6035 35.4638 28.6035 34.9095V32.9021Z" fill="#656565"/>
<path d="M8.53125 24.0896C8.53125 23.5353 8.98061 23.0859 9.53493 23.0859H11.5423C12.0966 23.0859 12.546 23.5353 12.546 24.0896V26.097C12.546 26.6513 12.0966 27.1006 11.5423 27.1006H9.53493C8.98061 27.1006 8.53125 26.6513 8.53125 26.097V24.0896Z" fill="#656565"/>
<path d="M16.5605 24.0896C16.5605 23.5353 17.0099 23.0859 17.5642 23.0859H19.5716C20.1259 23.0859 20.5753 23.5353 20.5753 24.0896V26.097C20.5753 26.6513 20.1259 27.1006 19.5716 27.1006H17.5642C17.0099 27.1006 16.5605 26.6513 16.5605 26.097V24.0896Z" fill="#656565"/>
<path d="M28.6035 17.0623C28.6035 16.508 29.0529 16.0586 29.6072 16.0586H31.6145C32.1689 16.0586 32.6182 16.508 32.6182 17.0623V19.0696C32.6182 19.6239 32.1689 20.0733 31.6145 20.0733H29.6072C29.0529 20.0733 28.6035 19.6239 28.6035 19.0696V17.0623Z" fill="#656565"/>
<path d="M28.6035 40.9334C28.6035 40.379 29.0529 39.9297 29.6072 39.9297H31.6145C32.1689 39.9297 32.6182 40.379 32.6182 40.9334V42.9407C32.6182 43.495 32.1689 43.9444 31.6145 43.9444H29.6072C29.0529 43.9444 28.6035 43.495 28.6035 42.9407V40.9334Z" fill="#656565"/>
<path d="M8.53125 32.117C8.53125 31.5626 8.98061 31.1133 9.53493 31.1133H11.5423C12.0966 31.1133 12.546 31.5626 12.546 32.117V34.1243C12.546 34.6786 12.0966 35.128 11.5423 35.128H9.53493C8.98061 35.128 8.53125 34.6786 8.53125 34.1243V32.117Z" fill="#656565"/>
<path d="M16.5605 32.117C16.5605 31.5626 17.0099 31.1133 17.5642 31.1133H19.5716C20.1259 31.1133 20.5753 31.5626 20.5753 32.117V34.1243C20.5753 34.6786 20.1259 35.128 19.5716 35.128H17.5642C17.0099 35.128 16.5605 34.6786 16.5605 34.1243V32.117Z" fill="#656565"/>
<path d="M28.6035 25.0935C28.6035 24.5392 29.0529 24.0898 29.6072 24.0898H31.6145C32.1689 24.0898 32.6182 24.5392 32.6182 25.0935V27.1009C32.6182 27.6552 32.1689 28.1046 31.6145 28.1046H29.6072C29.0529 28.1046 28.6035 27.6552 28.6035 27.1009V25.0935Z" fill="#656565"/>
<path d="M8.53125 40.1482C8.53125 39.5939 8.98061 39.1445 9.53493 39.1445H11.5423C12.0966 39.1445 12.546 39.5939 12.546 40.1482V42.1556C12.546 42.7099 12.0966 43.1592 11.5423 43.1592H9.53493C8.98061 43.1592 8.53125 42.7099 8.53125 42.1556V40.1482Z" fill="#656565"/>
<path d="M16.5605 40.1482C16.5605 39.5939 17.0099 39.1445 17.5642 39.1445H19.5716C20.1259 39.1445 20.5753 39.5939 20.5753 40.1482V42.1556C20.5753 42.7099 20.1259 43.1592 19.5716 43.1592H17.5642C17.0099 43.1592 16.5605 42.7099 16.5605 42.1556V40.1482Z" fill="#656565"/>
<path d="M36.6328 9.03493C36.6328 8.48061 37.0822 8.03125 37.6365 8.03125H39.6438C40.1982 8.03125 40.6475 8.48061 40.6475 9.03493V11.0423C40.6475 11.5966 40.1982 12.046 39.6438 12.046H37.6365C37.0822 12.046 36.6328 11.5966 36.6328 11.0423V9.03493Z" fill="#656565"/>
<path d="M36.6328 16.9529C36.6328 16.3986 37.0822 15.9492 37.6365 15.9492H39.6438C40.1982 15.9492 40.6475 16.3986 40.6475 16.9529V18.9603C40.6475 19.5146 40.1982 19.9639 39.6438 19.9639H37.6365C37.0822 19.9639 36.6328 19.5146 36.6328 18.9603V16.9529Z" fill="#656565"/>
<g clip-path="url(#clip1_1048_52467)">
<path d="M61.655 33.845L61.67 33.83L56.885 29.045C56.45 28.61 55.73 28.61 55.295 29.045C54.86 29.48 54.86 30.2 55.295 30.635L57.665 33.005C56.09 33.605 55.025 35.21 55.295 37.07C55.535 38.72 56.945 40.055 58.595 40.235C59.3 40.31 59.915 40.19 60.5 39.935V50.75C60.5 51.575 59.825 52.25 59 52.25C58.175 52.25 57.5 51.575 57.5 50.75V44C57.5 42.35 56.15 41 54.5 41H53V30.5C53 28.85 51.65 27.5 50 27.5H41C39.35 27.5 38 28.85 38 30.5V53C38 53.825 38.675 54.5 39.5 54.5H51.5C52.325 54.5 53 53.825 53 53V43.25H55.25V50.54C55.25 52.505 56.66 54.29 58.61 54.485C60.86 54.71 62.75 52.955 62.75 50.75V36.5C62.75 35.465 62.33 34.52 61.655 33.845ZM59 38C58.175 38 57.5 37.325 57.5 36.5C57.5 35.675 58.175 35 59 35C59.825 35 60.5 35.675 60.5 36.5C60.5 37.325 59.825 38 59 38ZM44 47.18V43.25H42.245C41.675 43.25 41.315 42.65 41.585 42.14L45.59 34.64C45.95 33.965 47 34.22 47 35V39.5H48.71C49.28 39.5 49.64 40.115 49.355 40.625L45.395 47.555C45.02 48.215 44 47.945 44 47.18V47.18Z" fill="#656565"/>
</g>
</g>
<defs>
<clipPath id="clip0_1048_52467">
<rect width="68" height="59" fill="white"/>
</clipPath>
<clipPath id="clip1_1048_52467">
<rect width="36" height="36" fill="white" transform="translate(32 23)"/>
</clipPath>
</defs>
</svg>
