<svg width="72" height="72" viewBox="0 0 72 72" fill="none" xmlns="http://www.w3.org/2000/svg">
<path d="M0.152344 36.509C0.152344 55.927 16.2017 71.668 36 71.668C55.7983 71.668 71.8475 55.927 71.8475 36.509C71.8475 17.0927 55.7983 1.35175 36 1.35175C16.2017 1.35175 0.152344 17.0927 0.152344 36.509ZM4.4551 36.509C4.4551 19.4212 18.5774 5.57015 36 5.57015C53.4225 5.57015 67.5465 19.4212 67.5465 36.509C67.5465 53.5969 53.4225 67.4496 36 67.4496C18.5774 67.4496 4.4551 53.5969 4.4551 36.509Z" fill="#323232"/>
<path d="M0.152344 36.509C0.152344 55.927 16.2017 71.668 36 71.668C55.7983 71.668 71.8475 55.927 71.8475 36.509C71.8475 17.0927 55.7983 1.35174 36 1.35174C16.2017 1.35174 0.152344 17.0927 0.152344 36.509ZM2.30289 36.509C2.30289 18.2569 17.3887 3.46096 36 3.46096C54.6096 3.46096 69.697 18.2569 69.697 36.509C69.697 54.7628 54.6096 69.5588 36 69.5588C17.3887 69.5588 2.30289 54.7628 2.30289 36.509Z" fill="#656565"/>
<path d="M36 4.51283C36 4.57926 36 36.875 36 36.875L41.356 33.8424L37.2903 5.59401C37.2903 5.59401 36.889 4.96291 36 4.51283" fill="#323232"/>
<path d="M36 36.5305V42.5725L49.3247 47.8206L62.6495 53.0703L64.2311 52.5139L50.1155 44.5222L43.0578 40.5264L36 36.5305Z" fill="#323232"/>
<path d="M9.34941 53.0703C9.34941 53.0703 8.58064 53.0271 7.74414 52.509C7.84066 52.4525 35.9989 36.5089 35.9989 36.5089V42.5725L9.34941 53.0703Z" fill="#323232"/>
<path d="M8.01876 50.9782C8.01876 50.9782 7.68011 51.5711 7.74446 52.5078C8.04926 52.3368 35.9992 36.5061 35.9992 36.5061L30.6433 33.4735L8.01876 50.9782Z" fill="#656565"/>
<path d="M36 36.5078C36 36.5078 64.1379 52.4414 64.2548 52.5078C64.3022 51.5512 63.9957 51.0131 63.9957 51.0131L41.356 33.4768L36 36.5078Z" fill="#656565"/>
<path d="M35.267 4.99597C34.9283 5.27166 34.7099 5.59551 34.7099 5.59551L30.6426 33.4752L35.9968 36.5078L35.9985 36.4779V4.51435C35.9901 4.51767 35.6903 4.65052 35.267 4.99597" fill="#656565"/>
<path d="M36.0002 42.0676L9.1543 53.0471C9.1543 53.0471 9.23388 53.0587 9.26098 53.0603C9.28299 53.0637 9.35072 53.0703 9.35072 53.0703L35.8292 42.6406L35.8258 42.6422C35.9511 42.5974 36.029 42.594 36.1543 42.6339L62.6497 53.0703C62.6497 53.0703 62.7242 53.0637 62.7462 53.062C62.7733 53.0587 62.8427 53.0471 62.8427 53.0471L36.0002 42.0676Z" fill="#323232"/>
<path d="M40.8612 33.7702C40.8612 33.7702 39.979 34.3183 39.256 34.7617L39.1679 34.6122C40.3261 34.0094 40.9069 33.7088 40.8172 33.0362C40.7461 32.503 37.1816 5.44544 37.1816 5.44544L37.2934 5.59325L41.3557 33.4746L40.8612 33.7702Z" fill="#323232"/>
<path d="M35.752 36.8628L35.9094 42.0311C35.9094 42.0311 35.9331 42.5742 35.9975 42.5742C36.0652 42.5742 36.0703 42.0328 36.0703 42.0328L36.2379 36.8628H35.752Z" fill="#656565"/>
<path d="M39.1686 34.614L36.1901 36.1253L35.8006 36.122C35.8006 36.122 31.2676 33.7188 31.1863 33.7803C31.1186 33.8301 35.5635 36.5322 35.5635 36.5322L35.7938 36.8577V36.8594H36.2053V36.8577L36.4339 36.5322L39.2567 34.7635C39.2567 34.7635 40.9128 33.8201 40.8603 33.7703C40.8078 33.7221 39.1686 34.614 39.1686 34.614Z" fill="#656565"/>
<path d="M36.3622 37.0186C36.3232 36.997 35.6628 37.0036 35.6256 37.0252L7.82295 52.5553L7.74505 52.5088L7.73828 52.4041L35.3784 36.5519C35.4325 36.5203 35.7272 36.0321 35.7272 35.9357L35.9151 4.55511L35.9998 4.51359L36.0862 4.55843L36.269 35.9357C36.2707 36.0553 36.5806 36.522 36.6331 36.5519L64.258 52.4025L64.2546 52.5071L64.1682 52.5586L36.3622 37.0186Z" fill="#656565"/>
<path d="M36.2185 37.4131C36.2287 37.3035 36.21 37.1224 36.3015 37.0759C36.3845 37.0344 36.5995 37.1474 36.6418 37.1739C36.7722 37.0527 36.8687 36.8916 36.9094 36.7122C36.8179 36.6491 36.6334 36.581 36.6334 36.4764C36.6334 36.3801 36.8129 36.307 36.8908 36.2455C36.8501 36.1077 36.7722 35.9831 36.6757 35.8802C36.6232 35.9034 36.4183 36.033 36.3337 35.9848C36.2456 35.935 36.2642 35.7573 36.2625 35.6676C36.2625 35.6609 36.0898 35.5912 35.995 35.5912C35.9019 35.5912 35.7291 35.6427 35.7291 35.6493C35.7291 35.749 35.7444 35.9333 35.6631 35.9782C35.5767 36.0263 35.3583 35.9018 35.316 35.8785C35.2178 35.9798 35.1416 36.1027 35.0992 36.2422C35.189 36.297 35.3448 36.3751 35.3448 36.4764C35.3448 36.5993 35.1754 36.6674 35.084 36.7205C35.1263 36.8999 35.2211 37.0577 35.3515 37.1789C35.3939 37.1523 35.5937 37.0328 35.6885 37.0776C35.7833 37.1241 35.7732 37.3084 35.7732 37.4048C35.846 37.423 35.9171 37.4297 35.995 37.4297C36.0729 37.4297 36.2185 37.4147 36.2185 37.4131Z" fill="#656565"/>
</svg>
