<svg width="72" height="72" viewBox="0 0 72 72" fill="none" xmlns="http://www.w3.org/2000/svg">
<g clip-path="url(#clip0_1080_49314)">
<path fill-rule="evenodd" clip-rule="evenodd" d="M8.42578 32.356V33.3419H10.054L13.2208 39.2871H17.1196L20.2864 33.3269L21.9146 33.312V32.341H17.0598V33.312H18.3445L16.1038 37.5394L13.6839 33.3269L15.4465 33.312V32.3261H8.42578V32.356ZM39.7204 32.356V33.3419H41.3486L44.5154 39.2871H48.4142L51.581 33.3269L53.2092 33.312V32.341H48.3544V33.312H49.6391L47.3984 37.5394L44.9785 33.3269L46.7411 33.312V32.3261H39.7204V32.356ZM31.7287 32.356V33.3419H33.3569V38.1966H31.654V39.2871L33.3569 39.302H41.4532V36.0755H40.3926C40.3328 37.7784 38.854 38.2116 38.2266 38.2116C37.659 38.2116 36.5386 38.2116 36.5386 38.2116V33.3568L38.137 33.3419V32.356H31.7287ZM26.2764 32.1468C23.5279 32.1468 21.2872 33.79 21.2872 35.8066C21.2872 37.8232 23.5279 39.4663 26.2764 39.4663C29.025 39.4663 31.2656 37.8232 31.2656 35.8066C31.2656 33.79 29.0399 32.1468 26.2764 32.1468ZM26.2017 38.4058C25.2308 38.4058 24.4391 37.2406 24.4391 35.8066C24.4391 34.3726 25.2308 33.2074 26.2017 33.2074C27.1727 33.2074 27.9644 34.3726 27.9644 35.8066C27.9644 37.2406 27.1727 38.4058 26.2017 38.4058ZM57.571 32.0273C54.8225 32.0273 52.5818 33.7004 52.5818 35.7468C52.5818 37.8083 54.8225 39.4663 57.571 39.4663C60.3196 39.4663 62.5602 37.7933 62.5602 35.7468C62.5602 33.7004 60.3345 32.0273 57.571 32.0273ZM57.4963 38.3759C56.5254 38.3759 55.7337 37.1958 55.7337 35.7319C55.7337 34.268 56.5254 33.0879 57.4963 33.0879C58.4673 33.0879 59.259 34.268 59.259 35.7319C59.259 37.1958 58.4673 38.3759 57.4963 38.3759Z" fill="#656565"/>
<path d="M54.0449 1.82422V2.57111C56.2856 3.73625 58.4068 5.1404 60.3337 6.75368L55.1951 11.8923C57.1221 13.4159 58.8549 15.1636 60.3636 17.0906L65.4873 11.967C67.0707 13.9238 68.4449 16.0599 69.5802 18.3155H70.5362V1.82422H54.0449Z" fill="#656565"/>
<path fill-rule="evenodd" clip-rule="evenodd" d="M65.771 15.7593L61.9319 19.2996C65.0539 24.1245 66.8764 29.8755 66.8764 36.0598C66.8764 53.0888 53.0739 66.8913 36.0448 66.8913C19.0158 66.8913 5.21328 53.0888 5.21328 36.0598C5.21328 19.0307 19.0158 5.22822 36.0448 5.22822C42.244 5.22822 48.0249 7.06556 52.8647 10.2174L56.7336 6.57261C50.8481 2.41992 43.7079 0 36 0C16.1178 0 0 16.1178 0 36C0 55.8822 16.1178 72 36 72C55.8822 72 72 55.8822 72 36C72 28.4863 69.6996 21.5253 65.771 15.7593Z" fill="#656565"/>
</g>
<defs>
<clipPath id="clip0_1080_49314">
<rect width="72" height="72" fill="white"/>
</clipPath>
</defs>
</svg>
