<svg width="73" height="72" viewBox="0 0 73 72" fill="none" xmlns="http://www.w3.org/2000/svg">
<g clip-path="url(#clip0_1048_52497)">
<path d="M36.002 0C16.168 0 0.00195312 16.166 0.00195312 36C0.00195312 55.834 16.168 72 36.002 72C55.8359 72 72.002 55.9698 72.002 36C72.002 16.0302 55.8359 0 36.002 0ZM69.6925 36C69.6925 54.6113 54.6133 69.6906 36.002 69.6906C17.3906 69.6906 2.31138 54.6113 2.31138 36C2.31138 17.3887 17.3906 2.30945 36.002 2.30945C54.6133 2.30945 69.6925 17.3887 69.6925 36Z" fill="#323232"/>
<path d="M53.2513 20.8827C53.7947 21.4261 54.4739 22.2412 54.8814 22.7846L62.2173 18.1657C61.8097 17.7582 61.2663 16.9431 60.8588 16.5355L56.2399 19.5242L55.9682 19.7959L56.2399 19.3883L58.2777 15.3129L56.7833 13.8185L52.7079 15.8563L52.3003 16.128L52.572 15.8563L55.5607 11.2374C55.0173 10.8298 54.4739 10.4223 53.7947 9.87891L49.1758 17.0789C49.7192 17.4864 50.5343 18.1657 51.0777 18.5732L55.4248 16.2638L55.6965 16.128L55.4248 16.3996L53.2513 20.8827Z" fill="#323232"/>
<path d="M36.6766 11.6453L38.7143 7.16229L38.8502 6.75476V7.16229L39.1219 13.1396C39.8011 13.1396 40.4803 13.2755 41.2954 13.4114L41.0237 4.71703C40.0728 4.58118 38.986 4.58116 38.0351 4.44531L36.1332 9.33589L35.9973 9.74342L35.8615 9.33589L33.9596 4.44531C33.0087 4.44531 31.9219 4.58118 30.9709 4.71703L30.6992 13.4114C31.3785 13.2755 32.1936 13.1396 32.8728 13.1396L33.1445 7.16229V6.75476L33.2804 7.16229L35.3181 11.6453H36.6766Z" fill="#323232"/>
<path d="M20.6472 18.708C21.734 17.4853 22.4133 16.1268 21.3265 14.7683C20.6472 14.0891 19.6963 13.9533 18.7453 14.225H18.6095V14.0891C18.7453 13.6816 18.8812 12.5948 17.9302 11.9155C17.5227 11.508 16.8435 11.3721 16.3001 11.508C15.2133 11.6438 14.3982 12.3231 12.0887 14.9042C11.4095 15.7193 10.4585 16.8061 9.7793 17.6212L16.0284 23.4627C18.2019 21.1532 19.017 20.3382 20.6472 18.708ZM12.4963 17.2136C13.7189 15.7193 15.0774 14.3608 15.6208 13.8174C15.7567 13.6815 16.0284 13.4099 16.3001 13.4099C16.7076 13.274 17.1151 13.5457 17.251 13.9532C17.3868 14.3608 17.1151 14.7683 16.8434 15.04C16.1642 15.7193 13.7189 18.3004 13.7189 18.3004L12.4963 17.2136ZM14.9416 19.5231C14.9416 19.5231 17.251 17.0778 18.0661 16.2627C18.3378 15.991 18.6095 15.7193 18.7453 15.7193C19.017 15.5834 19.2887 15.5834 19.5604 15.7193C19.8321 15.8551 19.968 16.1268 19.8321 16.5344C19.6963 16.9419 19.4246 17.2136 19.2887 17.4853C19.017 17.8929 16.1642 20.7457 16.1642 20.8816L14.9416 19.5231Z" fill="#323232"/>
<path d="M36.0021 14.6719V36.0002H14.6738C14.6738 24.3172 24.1833 14.6719 36.0021 14.6719Z" fill="#656565"/>
<path d="M57.3303 36C57.3303 47.8189 47.8208 57.3283 36.002 57.3283V36H57.3303Z" fill="#656565"/>
<path d="M57.3303 36.0002H36.002V14.6719C47.8208 14.6719 57.3303 24.3172 57.3303 36.0002Z" fill="#323232"/>
<path d="M36.0021 57.3283C24.1833 57.3283 14.6738 47.8189 14.6738 36H36.0021V57.3283Z" fill="#323232"/>
</g>
<defs>
<clipPath id="clip0_1048_52497">
<rect width="72" height="72" fill="white" transform="translate(0.00195312)"/>
</clipPath>
</defs>
</svg>
