<svg width="259" height="60" viewBox="0 0 259 60" fill="none" xmlns="http://www.w3.org/2000/svg">
<g clip-path="url(#clip0_1080_49311)">
<path d="M210.729 30.5256L205.861 40.2484H205.705L205.401 30.5256H201.289L201.134 30.8298L201.445 31.1341C201.749 31.2828 201.905 31.5871 201.905 32.1956L202.533 44.197H207.267L214.706 30.5256H210.729ZM195.96 37.51C195.663 38.5371 195.207 39.5113 194.608 40.3971C193.957 40.9021 193.153 41.1693 192.329 41.1544C191.26 41.1544 190.652 40.7014 190.652 39.9374C190.718 38.9356 190.976 37.9557 191.409 37.0503C191.869 35.8332 192.167 34.9204 192.762 34.3457C193.222 33.8927 193.675 33.5885 195.041 33.5885C196.109 33.5885 196.562 34.0415 196.562 34.8055C196.491 35.7332 196.289 36.6462 195.96 37.5168V37.51ZM195.656 30.3701H195.345C192.762 30.3701 191.233 30.9786 190.016 32.3444C188.495 33.8657 187.122 38.1186 187.122 40.3971C187.122 42.6757 188.65 44.3457 191.856 44.3457H192.315C194.905 44.3457 196.271 43.5885 197.489 42.3714C199.017 40.8501 200.383 36.4485 200.383 34.3187C200.376 31.8981 198.855 30.3768 195.656 30.3768V30.3701ZM222.144 38.7338L223.213 35.8468H218.479L219.237 33.7169H224.417L225.478 30.5256H215.754L215.598 30.9786L215.903 31.1273C216.063 31.5172 216.063 31.9545 215.903 32.3444L211.791 44.0415H220.927L221.996 41.0057H216.667L217.424 38.7271L222.144 38.7338ZM239.199 46.0226C228.082 51.6412 214.232 53.9198 201.742 53.9198C189.408 53.9198 175.551 51.6412 164.441 46.0226C158.652 42.9867 150.733 37.3613 150.733 30.0726C150.733 22.6351 158.652 17.0097 164.441 13.9739C175.558 8.35519 189.408 6.07663 201.742 6.07663C214.232 6.07663 228.116 8.35519 239.199 13.9739C244.988 17.0097 252.724 22.6351 252.724 30.0726C252.758 37.3613 244.988 42.9867 239.206 46.0226H239.199ZM239.659 12.8921C228.393 7.11788 214.381 4.84606 201.742 4.84606C189.252 4.84606 175.247 7.12465 163.981 12.8921C157.584 16.2322 149.516 22.0063 149.516 30.0591C149.516 37.9563 157.584 43.8792 163.981 47.0705C175.247 52.8447 189.252 55.1233 201.742 55.1233C214.381 55.1233 228.386 52.8447 239.659 47.0705C246.049 43.8792 254.117 37.9563 254.117 30.0591C254.124 22.0199 246.056 16.2524 239.659 12.9056V12.8921ZM233.262 35.5222C233.04 35.8599 232.722 36.1236 232.349 36.2795C232.2 36.4282 231.591 36.4282 231.132 36.4282H229.455L230.367 33.5411H232.498C233.255 33.5411 233.411 33.9941 233.411 34.2984C233.432 34.7185 233.381 35.1392 233.262 35.5425V35.5222ZM232.802 30.5121H227.013L226.865 30.8163L227.169 31.1206C227.324 31.2693 227.324 31.5736 227.169 32.3376L223.064 44.197H226.716L228.393 39.4641H229.583L231.105 44.197H234.763L233.086 39.3356C233.828 39.2532 234.523 38.933 235.067 38.4228C235.897 37.6451 236.48 36.6413 236.744 35.5357C236.977 34.9516 237.083 34.325 237.056 33.6969C237.029 33.0689 236.87 32.4536 236.589 31.8914C236.007 31.1341 234.939 30.5256 232.809 30.5256L232.802 30.5121ZM240.565 48.7676C230.219 54.082 216.511 56.9691 201.742 56.9691C187.122 56.9691 173.421 54.082 163.068 48.7676C153.168 43.602 147.69 37.0706 147.69 30.0861C147.69 23.1017 153.175 16.4147 163.068 11.249C173.421 5.93464 187.122 3.04757 201.742 3.04757C216.511 3.04757 230.219 5.93464 240.565 11.249C250.465 16.4147 255.943 23.0949 255.943 30.0861C255.943 37.0773 250.472 43.5885 240.572 48.7541L240.565 48.7676ZM241.918 8.51748C231.26 3.04757 216.951 0.0117188 201.722 0.0117188C186.649 0.0117188 172.333 3.04757 161.675 8.51748C155.285 11.8576 144.627 18.9975 144.627 30.0861C144.627 41.0192 155.285 48.1591 161.675 51.506C172.333 56.9759 186.649 60.0117 201.722 60.0117C216.951 60.0117 231.26 56.9759 241.918 51.506C248.315 48.1659 258.972 41.0259 258.972 30.0861C258.999 18.984 248.342 11.844 241.945 8.50394L241.918 8.51748ZM183.146 35.5628C182.924 35.9005 182.606 36.1642 182.233 36.32C182.084 36.4688 181.624 36.4688 181.015 36.4688H179.338L180.251 33.5817H182.381C183.139 33.5817 183.294 34.0347 183.294 34.339C183.32 34.7441 183.279 35.1507 183.173 35.5425L183.146 35.5628ZM182.841 30.5526H176.904L176.755 30.8569L177.059 31.1611C177.215 31.3099 177.215 31.6142 177.059 32.3782L172.968 44.197H176.62L178.297 39.4641H179.541L181.063 44.197H184.714L183.037 39.3356C183.788 39.2879 184.495 38.9625 185.019 38.4228C185.848 37.6451 186.431 36.6413 186.696 35.5357C186.928 34.9516 187.034 34.325 187.008 33.6969C186.981 33.0689 186.821 32.4536 186.54 31.8914C185.911 31.1341 184.843 30.5256 182.868 30.5256L182.841 30.5526ZM173.374 32.3782L163.021 35.7183L161.803 39.0584H170.784L172.001 35.867H165.814L172.975 33.4397L173.374 32.3782ZM188.447 17.794L188.603 21.8981H186.013L188.447 17.794ZM178.851 27.6655H182.814L184.545 24.5891H188.657V27.625H192.309L191.551 13.9536H186.222L186.067 14.2578L186.222 14.5621C186.527 14.7109 186.371 15.1706 185.31 16.8407L178.851 27.6655ZM193.167 27.6655H196.515L199.565 18.8758L201.242 27.6655H204.623L209.357 13.9941H205.854L203.264 21.4316L201.911 13.9941H197.036L196.887 14.2984L197.191 14.6027C197.495 14.9069 197.495 15.2112 197.191 15.8197L193.167 27.6655ZM214.232 17.1517H215.754C216.816 17.1517 217.275 17.6047 217.431 18.3687C217.351 19.2711 217.093 20.1488 216.674 20.9515C216.214 22.3038 215.909 23.0814 215.321 23.6561C215.017 24.1091 214.408 24.2646 213.035 24.2646H211.818L214.232 17.1517ZM211.034 15.7994L206.922 27.6453H213.008C215.598 27.6453 216.971 27.0367 218.188 25.8197C219.71 24.1497 221.083 20.0455 220.927 17.767C220.927 15.4884 219.406 13.9671 216.356 13.9671H210.878L210.723 14.2714L211.027 14.5756C211.191 14.9666 211.194 15.4067 211.034 15.7994ZM233.722 18.8352H224.586L223.368 22.1753H229.766L222.604 24.4539L222.144 25.671L232.342 22.3309L233.722 18.8352ZM168.708 27.625H177.999L179.061 24.2849H173.732L177.235 13.9536H172.502V14.2578L172.657 14.5621C172.961 14.8664 172.961 15.1706 172.657 15.7791L168.708 27.625Z" fill="#656565"/>
<path d="M73.8454 46.3305V50.7321C73.9422 51.7537 73.6739 52.7766 73.088 53.6192C72.1751 54.9715 70.3493 55.5935 65.4736 55.5935C60.6047 55.5935 58.7788 54.985 57.8659 53.6192C57.2779 52.7776 57.0093 51.7539 57.1085 50.7321V46.3305H60.4897V50.7321C60.4164 51.5864 60.6306 52.4407 61.0983 53.1594C61.8557 54.221 63.0797 54.5117 65.3654 54.5117H65.6697C67.9486 54.5117 69.1726 54.2074 69.9368 53.1594C70.4045 52.4407 70.6187 51.5864 70.5454 50.7321V46.3305H73.8454ZM107.495 47.392C108.285 47.3101 109.082 47.468 109.781 47.845C109.953 48.0219 110.083 48.2353 110.162 48.4695C110.24 48.7036 110.265 48.9523 110.234 49.1973V49.346C110.261 49.6051 110.219 49.8667 110.112 50.1043C110.005 50.3418 109.837 50.5468 109.625 50.6983C109.165 51.0026 108.564 51.0026 107.495 51.0026H100.794V47.3582L107.495 47.392ZM109.172 52.1249C110.271 52.1738 111.367 51.9654 112.371 51.5164C112.748 51.2683 113.057 50.9298 113.269 50.5318C113.482 50.1338 113.591 49.689 113.588 49.2379C113.638 48.7221 113.516 48.2042 113.241 47.7651C112.966 47.3259 112.553 46.9903 112.067 46.8105C110.73 46.4337 109.341 46.2806 107.955 46.3575H97.453V55.2893H100.8V52.2534H105.223L110.396 55.2893H114.508L109.172 52.1249ZM49.9403 54.0993V51.2122H53.3215V55.3163H43.5499C42.0527 55.3941 40.5543 55.1876 39.134 54.7078C38.3201 54.4382 37.6213 53.9014 37.1511 53.1845C36.6809 52.4677 36.467 51.6129 36.544 50.7592C36.5319 50.0527 36.7093 49.3558 37.0577 48.7411C37.4062 48.1263 37.913 47.6162 38.5254 47.2636C39.7426 46.5063 41.1154 46.3508 43.5499 46.3508H53.0172V47.5678H44.6116C42.7857 47.5678 41.7173 47.7166 40.9599 48.4806C40.5981 48.7681 40.3118 49.1393 40.1256 49.5622C39.9395 49.9851 39.8591 50.447 39.8914 50.9079C39.8849 51.3804 39.992 51.8476 40.2039 52.27C40.4157 52.6925 40.726 53.0578 41.1087 53.3352C41.8728 53.9437 42.7857 54.0925 44.6116 54.0925L49.9403 54.0993ZM14.6135 46.3508V50.7524C14.6612 51.3053 14.5906 51.8619 14.4064 52.3854C14.2222 52.9088 13.9285 53.387 13.5451 53.7882C12.3279 55.0053 10.0422 55.3095 6.84355 55.3095H0V54.0925H6.42428C8.25013 54.0925 9.6229 53.7882 10.3803 53.031C10.7068 52.6897 10.957 52.2829 11.1144 51.8377C11.2718 51.3924 11.3327 50.9187 11.2932 50.4481V46.344L14.6135 46.3508ZM88.9256 53.4705H79.0187L77.3416 55.296H75.4008L83.3196 46.3372H86.5182L94.4031 55.2893H90.5959L88.9256 53.4705ZM79.9451 52.2534H88.0194L83.9079 47.5205L79.9451 52.2534ZM29.8493 53.4705H19.7935L18.1165 55.296H16.1351L24.0539 46.3372H27.4351L35.1983 55.296H31.5466L29.8493 53.4705ZM20.7132 52.2534H28.7808L24.8248 47.5205L20.7132 52.2534ZM15.3845 9.2649V8.96065C15.54 8.96065 15.6888 8.35213 16.2974 8.20338H17.0615C16.9483 8.44248 16.7781 8.65013 16.5659 8.8081C16.3537 8.96607 16.1059 9.06954 15.8443 9.1094C15.6982 9.18619 15.5406 9.2387 15.3777 9.2649H15.3845ZM109.335 33.8693C109.179 34.6266 108.266 35.5394 107.049 35.9992C105.366 36.4639 103.613 36.6175 101.876 36.4522C99.8291 36.105 97.9552 35.0898 96.5468 33.5651C95.7894 32.8079 94.8697 31.7396 93.9568 30.8606C93.127 30.0472 92.0625 29.515 90.9137 29.3393C89.2367 29.035 85.2739 29.035 83.7524 28.4265C82.6907 28.1222 81.4667 27.5137 79.7964 25.0864C79.0322 23.8694 78.4439 23.5651 77.3551 22.8078C77.815 23.2709 78.2253 23.7808 78.5791 24.3291C79.3365 25.5462 79.6408 26.4589 80.1007 27.0337C80.4175 27.6867 80.8802 28.2581 81.4531 28.7037C82.0527 29.2192 82.7964 29.5379 83.5833 29.6165C85.509 29.7657 87.4411 29.8154 89.3719 29.7652C90.1043 29.6681 90.8489 29.7263 91.5573 29.936C92.2657 30.1457 92.922 30.5022 93.4834 30.9823C94.4261 31.9238 95.2922 32.939 96.0735 34.0181C96.9864 34.9309 97.595 35.8437 99.4547 36.7226C100.063 37.0269 100.976 37.7842 100.976 38.3927C100.219 39.1499 99.1503 39.4542 96.8646 38.8457C97.3239 39.2794 97.8931 39.5793 98.5105 39.7128C99.128 39.8462 99.7702 39.8083 100.368 39.603C100.133 39.8514 99.8482 40.0473 99.5324 40.1778C99.2165 40.3083 98.8766 40.3705 98.535 40.3602C96.256 40.2115 94.1191 37.4732 92.9019 36.5604C92.1098 35.8137 91.2417 35.152 90.3119 34.5861C88.0329 32.916 82.7042 33.369 82.7042 33.369L78.897 33.5246C71.2825 34.1331 68.2394 27.4393 67.3265 26.0871C67.1089 25.6607 66.8556 25.2535 66.5691 24.87C66.1092 24.417 64.1346 21.6787 61.9977 20.9214C61.9977 20.9214 64.1279 22.5915 63.9791 23.8085C63.9791 23.8085 63.0662 23.3555 60.7805 23.653C50.8803 25.1743 47.5329 22.5915 47.5329 22.5915C47.9928 20.6172 46.62 18.6429 46.62 18.6429C47.3842 18.9471 52.2531 20.4684 56.8177 19.5556C56.8177 19.5556 49.3791 19.5556 44.03 15.4515C44.03 15.4515 47.4112 19.5556 46.4645 22.2872C46.4645 22.2872 46.0046 24.9917 40.2228 23.9573C39.6142 23.8085 38.8703 23.653 30.3226 21.2527C28.3412 20.6442 27.5838 21.557 27.2795 22.1655C27.2795 23.0783 26.2111 23.9911 25.758 24.2953C25.4249 24.283 25.1003 24.1865 24.8145 24.0149C24.5287 23.8433 24.291 23.6022 24.1236 23.3139C23.9562 23.0257 23.8645 22.6998 23.857 22.3666C23.8495 22.0334 23.9266 21.7037 24.0809 21.4083C22.4038 23.8356 24.2364 24.9038 24.8451 24.9038C24.5126 24.9899 24.2017 25.1442 23.9322 25.3569C23.9322 25.3569 21.6464 24.0046 22.8637 21.8612C24.5408 18.9742 26.3666 18.0614 29.4097 17.7571C30.5668 17.5644 31.7433 17.5144 32.9126 17.6084C35.1983 17.9126 36.5643 19.1297 40.0672 19.5827C32.7571 17.4529 32.7571 13.2 32.7571 13.0512C32.4183 14.251 32.4704 15.5275 32.9059 16.6956C32.7571 16.5401 31.2288 15.6341 30.6202 15.1743C29.1632 14.2896 27.5603 13.6715 25.8865 13.3487C24.9736 13.2 24.6693 12.1317 24.6693 12.1317C24.6497 12.1317 24.6304 12.1279 24.6123 12.1204C24.5943 12.1129 24.5779 12.1019 24.564 12.0881C24.5502 12.0743 24.5393 12.0579 24.5318 12.0399C24.5243 12.0218 24.5205 12.0025 24.5205 11.983C23.3032 10.0087 22.086 9.85315 22.086 9.85315C22.5674 10.5169 22.834 11.312 22.8502 12.1317C23.1545 14.7145 20.2602 15.4718 20.2602 15.4718C18.4343 17.7504 18.5831 17.7504 18.13 17.7504C17.8257 17.8991 16.9128 17.4461 16.9128 17.4461C16.8922 17.4063 16.8799 17.3628 16.8766 17.3182C16.8734 17.2736 16.8792 17.2287 16.8937 17.1864C16.9082 17.144 16.9312 17.1051 16.9612 17.0719C16.9912 17.0386 17.0276 17.0119 17.0683 16.9931L17.5214 16.5401C19.5028 14.5658 19.6515 13.653 19.5028 12.436C19.0429 9.85313 17.2171 10.1574 17.2171 10.1574C16.9626 10.1519 16.712 10.2206 16.4959 10.3551C16.2797 10.4896 16.1074 10.684 15.9998 10.9147C15.6558 11.5536 15.3509 12.213 15.0869 12.889C14.8636 13.3553 14.4863 13.7302 14.0185 13.9505H13.7142C13.504 13.927 13.3009 13.8609 13.1172 13.7563C12.9335 13.6517 12.7731 13.5107 12.6457 13.342V13.1932C12.0371 12.7402 12.4969 11.841 12.4969 11.841C12.6916 11.3259 13.0195 10.8717 13.4473 10.5248C13.875 10.1779 14.3871 9.95082 14.9314 9.86666C15.1888 9.83216 15.444 9.78249 15.6955 9.71791C16.2775 9.5785 16.8229 9.31635 17.2952 8.94903C17.7675 8.58171 18.1559 8.11771 18.4343 7.5881H16.5679C16.18 7.72116 15.8275 7.94066 15.537 8.22998C15.2464 8.5193 15.0255 8.87089 14.8908 9.25815C13.8223 9.56241 13.9779 8.64963 14.1267 8.34537C14.2754 8.04111 14.8908 6.9931 18.8604 6.0668C20.8702 5.72809 22.9129 5.62597 24.9465 5.76253L24.7977 6.0668C24.3301 6.72723 23.6699 7.22715 22.9073 7.49824C22.1448 7.76933 21.3171 7.79834 20.5374 7.58133C20.5374 7.58133 20.5374 8.64285 23.1274 9.09586C23.1274 9.09586 25.5619 9.55564 29.5247 12.7402C29.5247 12.7402 27.6988 8.94712 24.3446 7.87883C24.3446 7.87883 24.0403 7.87882 24.1959 7.57456C25.4776 6.46192 27.0718 5.77238 28.7605 5.60027C28.7605 5.60027 37.5922 4.84301 42.4611 11.5232C41.7134 10.0856 40.847 8.71277 39.8711 7.41907C39.8711 7.41907 45.0511 8.94037 52.8144 11.5232C52.8144 11.5232 58.1431 13.4975 61.6461 14.8633C66.2174 16.6888 77.7812 21.0905 85.2468 25.1946C86.4641 25.9519 99.8672 32.7876 99.8672 32.7876C103.519 34.4576 106.109 33.5448 106.109 33.5448C107.022 33.0918 108.55 32.0235 109.159 32.6321C109.339 32.7794 109.457 32.9898 109.489 33.2207C109.52 33.4517 109.463 33.6859 109.328 33.8761L109.335 33.8693ZM110.247 32.348C109.639 31.131 108.117 31.4353 108.117 31.4353C107.509 31.5908 106.589 32.4968 105.527 32.7876C103.974 33.2442 102.315 33.1921 100.794 32.6388C96.8376 30.9688 84.1987 23.6733 77.6527 20.4684C77.6527 20.4684 70.214 16.9728 59.3942 12.7199C59.3942 12.7199 37.9236 3.60567 23.6143 4.3697C23.6143 4.3697 15.9998 4.51845 13.5654 7.85855C13.3756 8.18053 13.3197 8.56411 13.4098 8.92683C13.4098 8.92683 13.5654 9.07558 13.4098 9.07558C12.6986 9.78941 12.0366 10.5507 11.4285 11.3542C11.2729 11.6584 10.9686 12.2669 11.4285 12.7064C11.4285 12.7064 11.7328 12.8552 11.7328 13.0107C11.8774 13.3949 12.0829 13.7533 12.3414 14.0722C12.6457 14.3765 13.4098 15.1337 14.3228 14.985L14.7826 14.8362C15.124 15.123 15.554 15.283 15.9998 15.2892C15.7582 14.8735 15.6019 14.4138 15.54 13.937C15.457 13.6914 15.457 13.4253 15.54 13.1797C15.7024 12.7229 15.9633 12.3074 16.3041 11.9627C16.3814 11.8619 16.4782 11.7776 16.5887 11.715C16.6992 11.6524 16.8212 11.6126 16.9474 11.5981C17.0736 11.5836 17.2014 11.5946 17.3233 11.6306C17.4451 11.6665 17.5585 11.7265 17.6566 11.8072C18.1165 11.9627 18.5696 13.0242 18.1165 14.39C17.9712 14.8936 17.6465 15.3266 17.2036 15.607H17.0548C16.7364 15.5542 16.4283 15.4515 16.1419 15.3028V15.8031C16.2906 15.9519 16.2906 16.2561 16.4462 16.4116L16.1419 16.7159C16.1419 16.8646 15.9931 17.3244 16.1419 17.6287C16.8664 17.9824 17.6351 18.2371 18.4275 18.3859C19.1917 18.3859 19.3405 17.9329 19.3405 17.9329C19.9491 17.1757 20.4089 16.5807 20.862 15.9586C21.9774 15.1024 23.2838 14.5293 24.6693 14.2886C24.8248 14.1398 27.2592 13.5313 31.2153 16.7159C30.1468 16.8646 28.7808 17.1689 27.7123 17.3244C26.5133 17.6205 25.3969 18.1844 24.4471 18.9736C23.4972 19.7629 22.7385 20.7571 22.228 21.8815C22.0041 22.2401 21.8654 22.6452 21.8226 23.0657C21.7797 23.4861 21.8338 23.9109 21.9808 24.3072C22.1277 24.7035 22.3635 25.0609 22.6701 25.3518C22.9768 25.6428 23.346 25.8596 23.7496 25.9857C23.7496 25.8369 26.4883 25.6814 27.8611 22.6456C27.8611 22.6456 28.4697 21.2933 29.6869 21.7328C30.5999 22.037 38.2143 24.7686 40.0402 25.2284C40.0402 25.2284 45.0647 26.4454 47.046 24.1669C50.0891 25.2284 53.1322 25.6882 60.5708 24.6199C61.3797 24.5277 62.1964 24.5277 63.0053 24.6199C63.749 24.6345 64.4792 24.8202 65.1395 25.1626C65.7997 25.505 66.3722 25.9948 66.8125 26.5942C68.9427 29.7855 71.3839 36.1615 80.2088 35.3839L84.1716 35.0797C86.6061 34.9241 88.5875 34.7754 90.5621 35.8369C91.6402 36.3113 92.6214 36.9806 93.4564 37.8112C95.4378 39.7855 97.2636 41.9153 99.8536 40.6983C100.767 40.3941 101.679 38.724 101.679 38.724C101.509 37.947 101.08 37.2508 100.462 36.7497C102.748 37.3582 107.772 37.6625 109.754 34.1668C109.985 33.9328 110.151 33.6425 110.235 33.3247C110.319 33.0068 110.319 32.6725 110.234 32.3548L110.247 32.348ZM21.66 6.83084C21.8155 6.83084 21.8155 6.97959 21.9643 6.97959C22.4985 6.94154 23.0178 6.7869 23.4858 6.52657C23.6532 6.4483 23.8082 6.34577 23.9457 6.2223H22.654C22.398 6.21955 22.1443 6.27255 21.9108 6.37763C21.6772 6.48271 21.4693 6.63737 21.3016 6.83084H21.66Z" fill="#656565"/>
</g>
<defs>
<clipPath id="clip0_1080_49311">
<rect width="259" height="60" fill="white"/>
</clipPath>
</defs>
</svg>
