<svg width="95" height="74" viewBox="0 0 95 74" fill="none" xmlns="http://www.w3.org/2000/svg">
<g clip-path="url(#clip0_1069_48305)">
<g clip-path="url(#clip1_1069_48305)">
<path d="M52.2609 24.5C52.9801 24.5 53.5981 25.0105 53.7339 25.7168L56.1372 38.2168C56.315 39.1419 55.6062 40 54.6641 40H13.7591C12.8361 40 12.1321 39.1744 12.2779 38.263L14.2779 25.763C14.3944 25.0353 15.0221 24.5 15.7591 24.5H52.2609ZM56.8925 22.8109C56.7617 22.099 56.1411 21.582 55.4172 21.582H12.5828C11.8589 21.582 11.2383 22.099 11.1075 22.8109L8.52471 36.8643C8.50827 36.9537 8.5 37.0445 8.5 37.1354V41.6654C8.5 42.4938 9.17157 43.1654 10 43.1654H10.5C11.3284 43.1654 12 43.8369 12 44.6654V60.1654C12 60.9938 12.6716 61.6654 13.5 61.6654H38C38.8284 61.6654 39.5 60.9938 39.5 60.1654V44.6654C39.5 43.8369 40.1716 43.1654 41 43.1654H51C51.8284 43.1654 52.5 43.8369 52.5 44.6654V60.1654C52.5 60.9938 53.1716 61.6654 54 61.6654H55.1667C55.9951 61.6654 56.6667 60.9938 56.6667 60.1654V44.582C56.6667 43.7996 57.3009 43.1654 58.0833 43.1654V43.1654C58.8657 43.1654 59.5 42.5311 59.5 41.7487V37.1354C59.5 37.0445 59.4917 36.9537 59.4753 36.8643L56.8925 22.8109ZM16.98 59.5C16.1516 59.5 15.48 58.8284 15.48 58V44.6654C15.48 43.8369 16.1516 43.1654 16.98 43.1654H34C34.8284 43.1654 35.5 43.8369 35.5 44.6654V58C35.5 58.8284 34.8284 59.5 34 59.5H16.98Z" fill="#656565"/>
</g>
<g clip-path="url(#clip2_1069_48305)">
<path d="M88.655 40.845L88.67 40.83L83.885 36.045C83.45 35.61 82.73 35.61 82.295 36.045C81.86 36.48 81.86 37.2 82.295 37.635L84.665 40.005C83.09 40.605 82.025 42.21 82.295 44.07C82.535 45.72 83.945 47.055 85.595 47.235C86.3 47.31 86.915 47.19 87.5 46.935V57.75C87.5 58.575 86.825 59.25 86 59.25C85.175 59.25 84.5 58.575 84.5 57.75V51C84.5 49.35 83.15 48 81.5 48H80V37.5C80 35.85 78.65 34.5 77 34.5H68C66.35 34.5 65 35.85 65 37.5V60C65 60.825 65.675 61.5 66.5 61.5H78.5C79.325 61.5 80 60.825 80 60V50.25H82.25V57.54C82.25 59.505 83.66 61.29 85.61 61.485C87.86 61.71 89.75 59.955 89.75 57.75V43.5C89.75 42.465 89.33 41.52 88.655 40.845ZM86 45C85.175 45 84.5 44.325 84.5 43.5C84.5 42.675 85.175 42 86 42C86.825 42 87.5 42.675 87.5 43.5C87.5 44.325 86.825 45 86 45ZM71 54.18V50.25H69.245C68.675 50.25 68.315 49.65 68.585 49.14L72.59 41.64C72.95 40.965 74 41.22 74 42V46.5H75.71C76.28 46.5 76.64 47.115 76.355 47.625L72.395 54.555C72.02 55.215 71 54.945 71 54.18V54.18Z" fill="#656565"/>
</g>
</g>
<defs>
<clipPath id="clip0_1069_48305">
<rect width="95" height="74" fill="white"/>
</clipPath>
<clipPath id="clip1_1069_48305">
<rect width="68" height="74" fill="white"/>
</clipPath>
<clipPath id="clip2_1069_48305">
<rect width="36" height="36" fill="white" transform="translate(59 30)"/>
</clipPath>
</defs>
</svg>
