<svg width="138" height="60" viewBox="0 0 138 60" fill="none" xmlns="http://www.w3.org/2000/svg">
<path d="M68.9346 0.0102539C63.8888 0.01111 58.9245 1.28107 54.5 3.70293C50.0755 6.12478 46.3334 9.62046 43.619 13.8673H0.434814L4.73389 18.1596H41.3757C40.6803 19.775 40.1285 21.4484 39.7267 23.1603H9.74247L13.9891 27.4003H39.0315C38.9493 28.2646 38.9047 29.132 38.8979 30.0002C38.9058 30.8019 38.9459 31.603 39.0182 32.4015H18.9982L23.2448 36.6414H39.6713C40.0521 38.3513 40.5822 40.0246 41.2555 41.6421H28.2534L32.5525 45.9344H43.531C46.2297 50.2306 49.9756 53.7733 54.4182 56.2313C58.8609 58.6893 63.8554 59.9824 68.9346 59.9896C74.0138 59.9825 79.0084 58.6895 83.4512 56.2314C87.8939 53.7734 91.6399 50.2307 94.3387 45.9344H105.317L109.616 41.6421H96.6141C97.2875 40.0246 97.8176 38.3513 98.1984 36.6414H114.625L118.871 32.4015H98.8515C98.9237 31.603 98.9638 30.8019 98.9717 30.0002C98.965 29.132 98.9206 28.2646 98.8386 27.4003H123.881L128.127 23.1603H98.143C97.7412 21.4484 97.1893 19.775 96.4939 18.1596H133.136L137.435 13.8673H94.2506C91.5362 9.62039 87.794 6.12466 83.3694 3.7028C78.9448 1.28094 73.9804 0.0110254 68.9346 0.0102539ZM68.9346 4.07534C72.3444 4.07534 75.7209 4.7459 78.8712 6.04875C82.0215 7.35159 84.8839 9.26121 87.2951 11.6685C89.7062 14.0759 91.6188 16.9338 92.9237 20.0792C94.2286 23.2245 94.9002 26.5957 94.9002 30.0002C94.9002 33.4047 94.2286 36.7758 92.9237 39.9212C91.6188 43.0665 89.7062 45.9244 87.2951 48.3318C84.8839 50.7391 82.0215 52.6487 78.8712 53.9516C75.7209 55.2544 72.3444 55.925 68.9346 55.925C62.048 55.925 55.4436 53.1936 50.5741 48.3318C45.7046 43.4699 42.9689 36.8759 42.9689 30.0002C42.9689 23.1245 45.7046 16.5304 50.5741 11.6685C55.4436 6.8067 62.048 4.07534 68.9346 4.07534ZM48.2788 23.2809V36.719H51.0856V26.1411L54.0464 36.719H56.9556L59.9262 26.1411V36.719H62.7336V23.2809H58.201L55.5163 32.4474L52.801 23.2809H48.2788ZM65.6631 23.2809V36.719H68.6847V23.2809H65.6631ZM71.5836 23.2809V36.719H74.3909V27.956L80.4242 36.719H83.4561V23.2809H80.6488V32.2547L74.524 23.2809H71.5836ZM86.5692 23.2809V36.719H89.5908V23.2809H86.5692Z" fill="white"/>
</svg>
