<svg width="116" height="52" viewBox="0 0 116 52" fill="none" xmlns="http://www.w3.org/2000/svg">
<path d="M74.4107 42.3286V46.7301C74.5075 47.7518 74.2391 48.7746 73.6533 49.6172C72.7404 50.9695 70.9145 51.5915 66.0388 51.5915C61.1699 51.5915 59.3441 50.983 58.4311 49.6172C57.8431 48.7756 57.5746 47.7519 57.6737 46.7301V42.3286H61.0549V46.7301C60.9816 47.5844 61.1958 48.4388 61.6636 49.1575C62.4209 50.219 63.6449 50.5097 65.9306 50.5097H66.2349C68.5139 50.5097 69.7379 50.2055 70.502 49.1575C70.9698 48.4388 71.184 47.5844 71.1106 46.7301V42.3286H74.4107ZM108.06 43.39C108.851 43.3082 109.647 43.4661 110.346 43.8431C110.518 44.02 110.649 44.2334 110.727 44.4675C110.805 44.7016 110.83 44.9504 110.799 45.1953V45.3441C110.826 45.6031 110.784 45.8648 110.677 46.1023C110.57 46.3399 110.402 46.5448 110.191 46.6963C109.731 47.0006 109.129 47.0006 108.06 47.0006H101.359V43.3562L108.06 43.39ZM109.737 48.123C110.837 48.1718 111.932 47.9635 112.936 47.5145C113.313 47.2663 113.622 46.9278 113.834 46.5299C114.047 46.1319 114.157 45.6871 114.153 45.2359C114.203 44.7201 114.081 44.2022 113.806 43.7631C113.531 43.324 113.118 42.9884 112.632 42.8086C111.296 42.4318 109.906 42.2787 108.52 42.3556H98.0182V51.2873H101.366V48.2514H105.788L110.961 51.2873H115.073L109.737 48.123ZM50.5056 50.0973V47.2102H53.8868V51.3143H44.1151C42.6179 51.3922 41.1196 51.1857 39.6993 50.7058C38.8854 50.4362 38.1866 49.8994 37.7164 49.1826C37.2462 48.4657 37.0322 47.611 37.1093 46.7572C37.0972 46.0507 37.2745 45.3539 37.623 44.7391C37.9714 44.1244 38.4782 43.6142 39.0907 43.2616C40.3079 42.5043 41.6806 42.3488 44.1151 42.3488H53.5825V43.5658H45.1768C43.351 43.5658 42.2825 43.7146 41.5251 44.4786C41.1634 44.7662 40.877 45.1374 40.6909 45.5603C40.5047 45.9832 40.4243 46.445 40.4567 46.9059C40.4501 47.3785 40.5573 47.8456 40.7691 48.2681C40.981 48.6905 41.2913 49.0559 41.6739 49.3333C42.438 49.9418 43.351 50.0905 45.1768 50.0905L50.5056 50.0973ZM15.1788 42.3488V46.7504C15.2265 47.3033 15.1559 47.86 14.9716 48.3834C14.7874 48.9069 14.4938 49.3851 14.1103 49.7863C12.8931 51.0033 10.6074 51.3076 7.40879 51.3076H0.565247V50.0905H6.98953C8.81538 50.0905 10.1881 49.7863 10.9455 49.029C11.272 48.6877 11.5222 48.281 11.6796 47.8357C11.837 47.3904 11.898 46.9168 11.8585 46.4462V42.342L15.1788 42.3488ZM89.4908 49.4685H79.5839L77.9068 51.294H75.966L83.8848 42.3353H87.0834L94.9684 51.2873H91.1612L89.4908 49.4685ZM80.5104 48.2514H88.5847L84.4731 43.5185L80.5104 48.2514ZM30.4145 49.4685H20.3588L18.6817 51.294H16.7003L24.6191 42.3353H28.0003L35.7635 51.294H32.1119L30.4145 49.4685ZM21.2785 48.2514H29.346L25.39 43.5185L21.2785 48.2514ZM15.9497 5.26294V4.9587C16.1052 4.9587 16.254 4.35018 16.8626 4.20143H17.6268C17.5136 4.44053 17.3434 4.64818 17.1311 4.80615C16.9189 4.96412 16.6711 5.06758 16.4096 5.10745C16.2635 5.18424 16.1059 5.23675 15.9429 5.26294H15.9497ZM109.9 29.8674C109.744 30.6247 108.831 31.5375 107.614 31.9972C105.932 32.462 104.178 32.6155 102.441 32.4502C100.394 32.103 98.5205 31.0878 97.1121 29.5632C96.3547 28.8059 95.435 27.7376 94.5221 26.8586C93.6922 26.0452 92.6277 25.5131 91.479 25.3373C89.8019 25.0331 85.8391 25.0331 84.3176 24.4246C83.2559 24.1203 82.0319 23.5118 80.3616 21.0845C79.5974 19.8674 79.0091 19.5631 77.9204 18.8059C78.3803 19.2689 78.7905 19.7788 79.1444 20.3272C79.9018 21.5442 80.2061 22.457 80.6659 23.0317C80.9827 23.6847 81.4455 24.2561 82.0184 24.7018C82.618 25.2173 83.3617 25.536 84.1485 25.6145C86.0742 25.7638 88.0063 25.8134 89.9372 25.7633C90.6695 25.6661 91.4142 25.7243 92.1226 25.934C92.831 26.1437 93.4872 26.5002 94.0487 26.9803C94.9913 27.9219 95.8574 28.937 96.6387 30.0162C97.5516 30.9289 98.1602 31.8417 100.02 32.7207C100.629 33.025 101.541 33.7822 101.541 34.3907C100.784 35.148 99.7156 35.4523 97.4299 34.8438C97.8891 35.2775 98.4583 35.5773 99.0758 35.7108C99.6932 35.8443 100.335 35.8063 100.933 35.601C100.698 35.8494 100.413 36.0453 100.098 36.1758C99.7818 36.3064 99.4418 36.3686 99.1002 36.3583C96.8213 36.2095 94.6844 33.4712 93.4671 32.5584C92.6751 31.8118 91.807 31.1501 90.8771 30.5841C88.5982 28.9141 83.2694 29.3671 83.2694 29.3671L79.4622 29.5226C71.8477 30.1311 68.8046 23.4374 67.8917 22.0851C67.6742 21.6587 67.4208 21.2516 67.1343 20.8681C66.6745 20.4151 64.6999 17.6768 62.563 16.9195C62.563 16.9195 64.6931 18.5895 64.5443 19.8066C64.5443 19.8066 63.6314 19.3535 61.3457 19.651C51.4456 21.1723 48.0982 18.5895 48.0982 18.5895C48.558 16.6152 47.1853 14.6409 47.1853 14.6409C47.9494 14.9452 52.8183 16.4665 57.3829 15.5537C57.3829 15.5537 49.9443 15.5537 44.5952 11.4496C44.5952 11.4496 47.9764 15.5537 47.0297 18.2853C47.0297 18.2853 46.5699 20.9898 40.788 19.9553C40.1794 19.8066 39.4355 19.6511 30.8879 17.2508C28.9065 16.6423 28.1491 17.555 27.8448 18.1636C27.8448 19.0763 26.7763 19.9891 26.3232 20.2934C25.9901 20.281 25.6655 20.1846 25.3797 20.013C25.094 19.8414 24.8563 19.6002 24.6889 19.312C24.5214 19.0238 24.4297 18.6979 24.4222 18.3646C24.4148 18.0314 24.4918 17.7017 24.6462 17.4063C22.9691 19.8336 24.8017 20.9019 25.4103 20.9019C25.0779 20.9879 24.767 21.1422 24.4974 21.3549C24.4974 21.3549 22.2117 20.0026 23.4289 17.8593C25.106 14.9722 26.9318 14.0594 29.9749 13.7552C31.1321 13.5624 32.3085 13.5125 33.4779 13.6064C35.7636 13.9107 37.1296 15.1277 40.6325 15.5807C33.3223 13.4509 33.3223 9.19804 33.3223 9.04929C32.9835 10.249 33.0356 11.5255 33.4711 12.6937C33.3223 12.5381 31.794 11.6321 31.1854 11.1724C29.7284 10.2877 28.1255 9.6695 26.4517 9.34679C25.5388 9.19804 25.2345 8.12976 25.2345 8.12976C25.215 8.12976 25.1956 8.12591 25.1776 8.11843C25.1595 8.11096 25.1431 8.09999 25.1293 8.08618C25.1155 8.07237 25.1045 8.05598 25.097 8.03794C25.0896 8.01989 25.0857 8.00054 25.0857 7.98101C23.8685 6.0067 22.6513 5.8512 22.6513 5.8512C23.1326 6.51493 23.3993 7.31006 23.4154 8.12976C23.7197 10.7126 20.8254 11.4699 20.8254 11.4699C18.9995 13.7484 19.1483 13.7484 18.6952 13.7484C18.3909 13.8972 17.478 13.4442 17.478 13.4442C17.4575 13.4044 17.4452 13.3609 17.4419 13.3162C17.4386 13.2716 17.4444 13.2267 17.459 13.1844C17.4735 13.1421 17.4964 13.1031 17.5265 13.0699C17.5565 13.0367 17.5929 13.0099 17.6335 12.9912L18.0866 12.5381C20.068 10.5638 20.2168 9.65104 20.068 8.43401C19.6082 5.85118 17.7823 6.15544 17.7823 6.15544C17.5278 6.14998 17.2772 6.21868 17.0611 6.35314C16.845 6.4876 16.6726 6.68202 16.5651 6.91271C16.221 7.5517 15.9162 8.21102 15.6522 8.88702C15.4289 9.35333 15.0515 9.72829 14.5837 9.94856H14.2794C14.0693 9.92506 13.8662 9.85898 13.6825 9.75435C13.4988 9.64972 13.3383 9.50873 13.2109 9.34002V9.19129C12.6023 8.73828 13.0622 7.83903 13.0622 7.83903C13.2568 7.32393 13.5848 6.86972 14.0125 6.52285C14.4402 6.17598 14.9524 5.94887 15.4966 5.86471C15.754 5.8302 16.0092 5.78053 16.2608 5.71596C16.8427 5.57655 17.3881 5.3144 17.8605 4.94708C18.3328 4.57976 18.7212 4.11576 18.9996 3.58615H17.1331C16.7453 3.71921 16.3927 3.9387 16.1022 4.22803C15.8117 4.51735 15.5907 4.86894 15.456 5.2562C14.3876 5.56046 14.5431 4.64767 14.6919 4.34341C14.8407 4.03915 15.4561 2.99115 19.4256 2.06485C21.4355 1.72614 23.4781 1.62401 25.5118 1.76058L25.363 2.06485C24.8953 2.72528 24.2351 3.2252 23.4726 3.49629C22.71 3.76737 21.8823 3.79639 21.1027 3.57938C21.1027 3.57938 21.1027 4.6409 23.6927 5.09391C23.6927 5.09391 26.1271 5.55369 30.0899 8.73827C30.0899 8.73827 28.264 4.94517 24.9099 3.87688C24.9099 3.87688 24.6056 3.87687 24.7611 3.57261C26.0428 2.45996 27.6371 1.77043 29.3257 1.59832C29.3257 1.59832 38.1574 0.841055 43.0264 7.52124C42.2786 6.08362 41.4123 4.71081 40.4364 3.41711C40.4364 3.41711 45.6164 4.93842 53.3796 7.52124C53.3796 7.52124 58.7084 9.49553 62.2113 10.8613C66.7827 12.6869 78.3464 17.0885 85.8121 21.1926C87.0293 21.9499 100.432 28.7856 100.432 28.7856C104.084 30.4556 106.674 29.5429 106.674 29.5429C107.587 29.0899 109.115 28.0216 109.724 28.6301C109.905 28.7774 110.022 28.9878 110.054 29.2188C110.085 29.4497 110.028 29.684 109.893 29.8742L109.9 29.8674ZM110.813 28.3461C110.204 27.1291 108.683 27.4333 108.683 27.4333C108.074 27.5888 107.154 28.4949 106.093 28.7856C104.539 29.2423 102.88 29.1902 101.359 28.6369C97.4028 26.9668 84.7639 19.6713 78.2179 16.4665C78.2179 16.4665 70.7793 12.9709 59.9594 8.71799C59.9594 8.71799 38.4888 -0.396279 24.1796 0.36775C24.1796 0.36775 16.5651 0.516502 14.1306 3.8566C13.9408 4.17858 13.885 4.56216 13.9751 4.92488C13.9751 4.92488 14.1306 5.07363 13.9751 5.07363C13.2638 5.78746 12.6019 6.54875 11.9937 7.35221C11.8382 7.65647 11.5339 8.26499 11.9937 8.70448C11.9937 8.70448 12.298 8.85321 12.298 9.00872C12.4426 9.39291 12.6481 9.75134 12.9066 10.0703C13.2109 10.3745 13.9751 11.1318 14.888 10.983L15.3478 10.8343C15.6892 11.1211 16.1193 11.2811 16.5651 11.2873C16.3234 10.8716 16.1671 10.4119 16.1053 9.93502C16.0223 9.68941 16.0223 9.42336 16.1053 9.17776C16.2677 8.72097 16.5285 8.30549 16.8694 7.96073C16.9467 7.85992 17.0434 7.77569 17.154 7.71306C17.2645 7.65043 17.3865 7.61068 17.5127 7.59617C17.6388 7.58166 17.7667 7.59269 17.8885 7.6286C18.0104 7.66452 18.1237 7.72457 18.2219 7.80521C18.6817 7.96072 19.1348 9.02225 18.6817 10.388C18.5365 10.8917 18.2117 11.3246 17.7688 11.6051H17.62C17.3016 11.5523 16.9935 11.4496 16.7071 11.3008V11.8012C16.8559 11.9499 16.8559 12.2542 17.0114 12.4097L16.7071 12.7139C16.7071 12.8627 16.5583 13.3225 16.7071 13.6267C17.4316 13.9804 18.2004 14.2351 18.9928 14.384C19.7569 14.384 19.9057 13.931 19.9057 13.931C20.5143 13.1737 20.9742 12.5787 21.4273 11.9567C22.5426 11.1004 23.849 10.5274 25.2345 10.2866C25.39 10.1379 27.8245 9.52935 31.7805 12.7139C30.712 12.8627 29.346 13.1669 28.2776 13.3225C27.0785 13.6185 25.9622 14.1824 25.0123 14.9717C24.0624 15.761 23.3038 16.7551 22.7933 17.8796C22.5694 18.2381 22.4307 18.6432 22.3878 19.0637C22.345 19.4842 22.3991 19.9089 22.546 20.3052C22.6929 20.7016 22.9288 21.0589 23.2354 21.3499C23.542 21.6409 23.9113 21.8577 24.3148 21.9837C24.3148 21.835 27.0536 21.6794 28.4264 18.6436C28.4264 18.6436 29.035 17.2913 30.2522 17.7308C31.1651 18.0351 38.7796 20.7667 40.6054 21.2264C40.6054 21.2264 45.6299 22.4435 47.6113 20.1649C50.6544 21.2264 53.6974 21.6862 61.1361 20.6179C61.945 20.5257 62.7617 20.5257 63.5706 20.6179C64.3142 20.6325 65.0445 20.8182 65.7047 21.1606C66.365 21.503 66.9375 21.9929 67.3778 22.5922C69.5079 25.7836 71.9492 32.1595 80.7741 31.382L84.7369 31.0777C87.1713 30.9222 89.1527 30.7734 91.1273 31.835C92.2054 32.3093 93.1866 32.9787 94.0217 33.8093C96.003 35.7836 97.8289 37.9134 100.419 36.6964C101.332 36.3921 102.245 34.7221 102.245 34.7221C102.075 33.945 101.645 33.2489 101.027 32.7477C103.313 33.3562 108.338 33.6605 110.319 30.1649C110.55 29.9309 110.716 29.6406 110.8 29.3227C110.884 29.0049 110.884 28.6705 110.799 28.3529L110.813 28.3461ZM22.2252 2.82888C22.3808 2.82888 22.3808 2.97763 22.5295 2.97763C23.0637 2.93959 23.5831 2.78495 24.0511 2.52461C24.2185 2.44634 24.3734 2.34381 24.5109 2.22035H23.2193C22.9632 2.21759 22.7096 2.2706 22.476 2.37568C22.2425 2.48076 22.0346 2.63542 21.8668 2.82888H22.2252Z" fill="white"/>
</svg>
