<svg width="115" height="60" viewBox="0 0 115 60" fill="none" xmlns="http://www.w3.org/2000/svg">
<path d="M66.2952 30.5273L61.4263 40.2501H61.2708L60.9665 30.5273H56.8549L56.6994 30.8315L57.0105 31.1358C57.3148 31.2846 57.4703 31.5888 57.4703 32.1973L58.0992 44.1987H62.8329L70.2715 30.5273H66.2952ZM51.5262 37.5117C51.229 38.5389 50.7726 39.5131 50.1737 40.3988C49.5227 40.9038 48.7185 41.171 47.8947 41.1561C46.8263 41.1561 46.2177 40.7031 46.2177 39.9391C46.2843 38.9373 46.5413 37.9574 46.975 37.052C47.4349 35.8349 47.7324 34.9221 48.3275 34.3474C48.7874 33.8944 49.2404 33.5902 50.6065 33.5902C51.6749 33.5902 52.128 34.0432 52.128 34.8072C52.0571 35.7349 51.8545 36.6479 51.5262 37.5185V37.5117ZM51.2219 30.3718H50.9108C48.3275 30.3718 46.7992 30.9803 45.582 32.3461C44.0605 33.8674 42.6877 38.1203 42.6877 40.3988C42.6877 42.6774 44.216 44.3474 47.4214 44.3474H47.8812C50.4712 44.3474 51.8372 43.5902 53.0544 42.3731C54.5827 40.8518 55.9488 36.4502 55.9488 34.3204C55.942 31.8999 54.4205 30.3785 51.2219 30.3785V30.3718ZM77.7102 38.7355L78.7786 35.8485H74.045L74.8023 33.7186H79.9823L81.044 30.5273H71.3197L71.1642 30.9803L71.4685 31.129C71.6286 31.5189 71.6286 31.9562 71.4685 32.3461L67.3569 44.0432H76.493L77.5614 41.0074H72.2326L72.99 38.7288L77.7102 38.7355ZM94.7649 46.0243C83.6475 51.6429 69.7982 53.9215 57.308 53.9215C44.9734 53.9215 31.1172 51.6429 20.0066 46.0243C14.218 42.9884 6.29922 37.363 6.29922 30.0743C6.29922 22.6368 14.218 17.0114 20.0066 13.9756C31.124 8.3569 44.9734 6.07834 57.308 6.07834C69.7982 6.07834 83.6814 8.3569 94.7649 13.9756C100.554 17.0114 108.29 22.6368 108.29 30.0743C108.324 37.363 100.554 42.9884 94.7717 46.0243H94.7649ZM95.2248 12.8938C83.9586 7.11959 69.9469 4.84777 57.308 4.84777C44.8179 4.84777 30.8129 7.12635 19.5467 12.8938C13.1495 16.2339 5.08195 22.008 5.08195 30.0608C5.08195 37.958 13.1495 43.8809 19.5467 47.0723C30.8129 52.8464 44.8179 55.125 57.308 55.125C69.9469 55.125 83.9519 52.8464 95.2248 47.0723C101.615 43.8809 109.683 37.958 109.683 30.0608C109.69 22.0216 101.622 16.2541 95.2248 12.9073V12.8938ZM88.8276 35.5239C88.6055 35.8616 88.2876 36.1253 87.9147 36.2812C87.7659 36.4299 87.1572 36.4299 86.6974 36.4299H85.0203L85.9332 33.5428H88.0634C88.8208 33.5428 88.9763 33.9958 88.9763 34.3001C88.9975 34.7202 88.9472 35.1409 88.8276 35.5442V35.5239ZM88.3677 30.5138H82.5791L82.4303 30.818L82.7346 31.1223C82.8902 31.271 82.8902 31.5753 82.7346 32.3393L78.6299 44.1987H82.2816L83.9586 39.4658H85.1488L86.6704 44.1987H90.3288L88.6517 39.3373C89.3934 39.2549 90.0886 38.9347 90.6331 38.4245C91.4624 37.6468 92.0455 36.643 92.3102 35.5374C92.5425 34.9533 92.6487 34.3267 92.6219 33.6986C92.5951 33.0706 92.4358 32.4553 92.1547 31.8931C91.5731 31.1358 90.5047 30.5273 88.3745 30.5273L88.3677 30.5138ZM96.131 48.7694C85.7845 54.0838 72.0771 56.9708 57.308 56.9708C42.6877 56.9708 28.9871 54.0838 18.6338 48.7694C8.73368 43.6037 3.25614 37.0723 3.25614 30.0878C3.25614 23.1034 8.74044 16.4164 18.6338 11.2507C28.9871 5.93635 42.6877 3.04928 57.308 3.04928C72.0771 3.04928 85.7845 5.93635 96.131 11.2507C106.031 16.4164 111.509 23.0966 111.509 30.0878C111.509 37.079 106.038 43.5902 96.1377 48.7558L96.131 48.7694ZM97.4834 8.51919C86.8259 3.04927 72.5166 0.0134277 57.2877 0.0134277C42.2143 0.0134277 27.8983 3.04927 17.2408 8.51919C10.8503 11.8593 0.192749 18.9992 0.192749 30.0878C0.192749 41.0209 10.8503 48.1608 17.2408 51.5077C27.8983 56.9776 42.2143 60.0134 57.2877 60.0134C72.5166 60.0134 86.8259 56.9776 97.4834 51.5077C103.881 48.1676 114.538 41.0276 114.538 30.0878C114.565 18.9857 103.908 11.8457 97.5105 8.50565L97.4834 8.51919ZM38.7114 35.5645C38.4894 35.9022 38.1714 36.1659 37.7985 36.3217C37.6497 36.4705 37.1899 36.4705 36.5812 36.4705H34.9042L35.8171 33.5834H37.9473C38.7046 33.5834 38.8602 34.0364 38.8602 34.3407C38.8856 34.7458 38.8444 35.1524 38.7384 35.5442L38.7114 35.5645ZM38.4071 30.5543H32.4697L32.3209 30.8586L32.6252 31.1628C32.7808 31.3116 32.7808 31.6159 32.6252 32.3799L28.534 44.1987H32.1857L33.8627 39.4658H35.107L36.6286 44.1987H40.2803L38.6032 39.3373C39.3541 39.2896 40.0604 38.9643 40.5846 38.4245C41.4138 37.6468 41.9969 36.643 42.2617 35.5374C42.4939 34.9533 42.6001 34.3267 42.5733 33.6986C42.5465 33.0706 42.3873 32.4553 42.1061 31.8931C41.4772 31.1358 40.4087 30.5273 38.4341 30.5273L38.4071 30.5543ZM28.9397 32.3799L18.5865 35.72L17.3693 39.0601H26.3497L27.5669 35.8687H21.3794L28.5407 33.4414L28.9397 32.3799ZM44.0131 17.7957L44.1687 21.8998H41.5787L44.0131 17.7957ZM34.4173 27.6672H38.3801L40.1112 24.5909H44.2227V27.6267H47.8745L47.1171 13.9553H41.7883L41.6328 14.2595L41.7883 14.5638C42.0926 14.7126 41.9371 15.1723 40.8754 16.8424L34.4173 27.6672ZM48.7333 27.6672H52.0807L55.1305 18.8775L56.8076 27.6672H60.1888L64.9225 13.9958H61.4195L58.8296 21.4333L57.4771 13.9958H52.6014L52.4526 14.3001L52.7569 14.6044C53.0612 14.9086 53.0612 15.2129 52.7569 15.8214L48.7333 27.6672ZM69.7982 17.1534H71.3197C72.3814 17.1534 72.8413 17.6064 72.9968 18.3704C72.9166 19.2728 72.6592 20.1505 72.2394 20.9533C71.7795 22.3055 71.4752 23.0831 70.8869 23.6578C70.5826 24.1108 69.974 24.2663 68.6012 24.2663H67.384L69.7982 17.1534ZM66.5995 15.8011L62.488 27.647H68.5742C71.1642 27.647 72.5369 27.0385 73.7542 25.8214C75.2757 24.1514 76.6485 20.0472 76.493 17.7687C76.493 15.4901 74.9714 13.9688 71.9216 13.9688H66.444L66.2885 14.2731L66.5928 14.5773C66.7569 14.9683 66.7593 15.4084 66.5995 15.8011ZM89.2874 18.837H80.1514L78.9342 22.1771H85.3314L78.17 24.4556L77.7102 25.6727L87.9079 22.3326L89.2874 18.837ZM24.2737 27.6267H33.5652L34.6269 24.2866H29.2981L32.8011 13.9553H28.0674V14.2595L28.2229 14.5638C28.5272 14.8681 28.5272 15.1723 28.2229 15.7808L24.2737 27.6267Z" fill="white"/>
</svg>
