<svg width="61" height="60" viewBox="0 0 61 60" fill="none" xmlns="http://www.w3.org/2000/svg">
<g clip-path="url(#clip0_14_8251)">
<path d="M48.2125 29.9999C48.2125 39.8248 40.2596 47.7777 30.4348 47.7777V29.9999H48.2125ZM30.4348 12.2222V29.9999H12.657C12.657 20.1751 20.6099 12.2222 30.4348 12.2222Z" fill="#0166B1"/>
<path d="M30.4348 12.2222C40.2596 12.2222 48.2125 20.1751 48.2125 29.9999H30.4348V12.2222ZM12.657 29.9999H30.4348V47.7777C20.6099 47.7777 12.657 39.8248 12.657 29.9999Z" fill="white"/>
<path d="M30.4348 12.2222V13.1969C39.6991 13.1969 47.2379 20.7339 47.2379 30H48.2126C48.2126 20.1822 40.2526 12.2222 30.4348 12.2222ZM30.4348 46.803C21.1705 46.803 13.6318 39.2661 13.6318 30H12.657C12.657 39.8178 20.617 47.7778 30.4348 47.7778V46.803ZM30.4348 0C13.8667 0 0.434814 13.4319 0.434814 30C0.434814 46.5681 13.8667 60 30.4348 60C47.0029 60 60.4348 46.5681 60.4348 30C60.4348 13.4319 47.0029 0 30.4348 0ZM58.484 30C58.484 45.4904 45.9269 58.0492 30.4348 58.0492C14.9427 58.0492 2.38566 45.4904 2.38566 30C2.38566 14.5096 14.9445 1.95085 30.4348 1.95085C45.9252 1.95085 58.484 14.5096 58.484 30Z" fill="white"/>
<path d="M17.6145 15.5273C18.5731 14.5245 19.1159 13.3659 18.1572 12.2599C17.6356 11.6596 16.7598 11.5283 16.0337 11.8241L15.9615 11.8521L15.9844 11.7891C16.0919 11.5038 16.1606 10.5938 15.3799 9.96548C14.9993 9.65921 14.5217 9.54545 14.0389 9.59446C13.1384 9.68546 12.4458 10.2962 10.5602 12.3841C9.99098 13.0142 9.16272 14.0082 8.66577 14.6523L13.845 19.5315C15.5614 17.6449 16.2611 16.9431 17.6145 15.5273ZM10.8562 14.3337C11.8995 13.0667 13.0079 11.9168 13.5102 11.4618C13.6688 11.3183 13.8415 11.1748 14.0512 11.1188C14.3913 11.026 14.742 11.2658 14.8213 11.6123C14.9006 11.9606 14.6803 12.2914 14.4354 12.5644C13.8838 13.1822 11.8607 15.284 11.8607 15.284L10.8562 14.3337ZM12.8846 16.2448C12.8846 16.2448 14.8548 14.1762 15.498 13.5147C15.7535 13.2522 15.9174 13.0929 16.0936 13.0072C16.321 12.8969 16.5694 12.8741 16.7915 13.0212C17.01 13.1664 17.1105 13.4167 17.0558 13.6652C16.9906 13.961 16.7474 14.2427 16.5465 14.458C16.2752 14.7468 13.9384 17.2302 13.9349 17.2337L12.8846 16.2448ZM31.0269 9.70821L32.6852 6.019L32.7909 5.69173L32.761 6.033L32.9354 10.963C33.517 11.0173 34.1179 11.0978 34.71 11.1958L34.4404 3.89437C33.6121 3.80337 32.7874 3.73862 31.9627 3.70361L30.3291 7.7306L30.2709 8.02987L30.2128 7.7306L28.5809 3.70361C27.7562 3.73862 26.9315 3.80337 26.1032 3.89437L25.8336 11.1958C26.4257 11.0978 27.0266 11.019 27.6082 10.963L27.7826 6.033L27.7527 5.69173L27.8584 6.019L29.5167 9.70821H31.0269H31.0269ZM44.7989 17.3404C45.2059 17.7744 45.7928 18.4745 46.1223 18.8998L52.1915 15.074C51.8884 14.6803 51.4055 14.0817 51.0443 13.6599L47.2008 16.1836L46.9382 16.4076L47.1338 16.1241L48.8309 12.7604L47.6308 11.5686L44.242 13.2539L43.9565 13.4482L44.1838 13.1874L46.7268 9.37219C46.2792 8.99417 45.8492 8.64765 45.3011 8.22763L41.4488 14.2497C41.937 14.6225 42.5802 15.1703 42.9908 15.5431L46.6175 13.6739L46.8501 13.5042L46.6792 13.7352L44.7989 17.3404Z" fill="white"/>
</g>
<defs>
<clipPath id="clip0_14_8251">
<rect width="60" height="60" fill="white" transform="translate(0.434814)"/>
</clipPath>
</defs>
</svg>
