<svg width="61" height="60" viewBox="0 0 61 60" fill="none" xmlns="http://www.w3.org/2000/svg">
<g clip-path="url(#clip0_14_9266)">
<path fill-rule="evenodd" clip-rule="evenodd" d="M7.58594 26.9626V27.7842H8.94278L11.5818 32.7385H14.8308L17.4698 27.7717L18.8266 27.7593V26.9501H14.781V27.7593H15.8515L13.9843 31.2821L11.9677 27.7717L13.4366 27.7593V26.9377H7.58594V26.9626ZM33.6648 26.9626V27.7842H35.0216L37.6606 32.7385H40.9096L43.5486 27.7717L44.9054 27.7593V26.9501H40.8598V27.7593H41.9303L40.0631 31.2821L38.0465 27.7717L39.5154 27.7593V26.9377H33.6648V26.9626ZM27.005 26.9626V27.7842H28.3619V31.8298H26.9428V32.7385L28.3619 32.751H35.1088V30.0622H34.2249C34.1751 31.4813 32.9428 31.8422 32.42 31.8422C31.9469 31.8422 31.0133 31.8422 31.0133 31.8422V27.7966L32.3453 27.7842V26.9626H27.005ZM22.4615 26.7883C20.171 26.7883 18.3038 28.1576 18.3038 29.8381C18.3038 31.5186 20.171 32.8879 22.4615 32.8879C24.7519 32.8879 26.6191 31.5186 26.6191 29.8381C26.6191 28.1576 24.7644 26.7883 22.4615 26.7883ZM22.3992 32.0041C21.5901 32.0041 20.9303 31.0331 20.9303 29.8381C20.9303 28.6431 21.5901 27.6721 22.3992 27.6721C23.2083 27.6721 23.8681 28.6431 23.8681 29.8381C23.8681 31.0331 23.2083 32.0041 22.3992 32.0041ZM48.5403 26.6887C46.2498 26.6887 44.3826 28.0829 44.3826 29.7883C44.3826 31.5061 46.2498 32.8879 48.5403 32.8879C50.8308 32.8879 52.698 31.4937 52.698 29.7883C52.698 28.0829 50.8432 26.6887 48.5403 26.6887ZM48.4781 31.9792C47.6689 31.9792 47.0092 30.9958 47.0092 29.7759C47.0092 28.5559 47.6689 27.5725 48.4781 27.5725C49.2872 27.5725 49.9469 28.5559 49.9469 29.7759C49.9469 30.9958 49.2872 31.9792 48.4781 31.9792Z" fill="white"/>
<path d="M45.6025 1.51855V2.14096C47.4698 3.11192 49.2374 4.28204 50.8432 5.62644L46.561 9.9086C48.1669 11.1783 49.6108 12.6347 50.8681 14.2405L55.1378 9.97084C56.4573 11.6015 57.6025 13.3816 58.5486 15.2613H59.3453V1.51855H45.6025Z" fill="white"/>
<path fill-rule="evenodd" clip-rule="evenodd" d="M55.3743 13.1328L52.1751 16.083C54.7768 20.1037 56.2955 24.8963 56.2955 30.0498C56.2955 44.2407 44.7934 55.7427 30.6025 55.7427C16.4117 55.7427 4.90958 44.2407 4.90958 30.0498C4.90958 15.8589 16.4117 4.35685 30.6025 4.35685C35.7685 4.35685 40.5859 5.88797 44.6191 8.51452L47.8432 5.47718C42.9386 2.0166 36.9884 0 30.5652 0C13.9967 0 0.565186 13.4315 0.565186 30C0.565186 46.5685 13.9967 60 30.5652 60C47.1337 60 60.5652 46.5685 60.5652 30C60.5652 23.7386 58.6482 17.9378 55.3743 13.1328Z" fill="white"/>
</g>
<defs>
<clipPath id="clip0_14_9266">
<rect width="60" height="60" fill="white" transform="translate(0.565186)"/>
</clipPath>
</defs>
</svg>
